<svg data-v-0dd9719b="" version="1.0" xmlns="http://www.w3.org/2000/svg" xmlns:xlink="http://www.w3.org/1999/xlink" width="100%" height="100%" viewBox="0 0 340.000000 250.000000" preserveAspectRatio="xMidYMid meet" color-interpolation-filters="sRGB" style="margin: auto;"> <rect data-v-0dd9719b="" x="0" y="0" width="100%" height="100%" fill="#fff" fill-opacity="1" class="background"></rect> <rect data-v-0dd9719b="" x="0" y="0" width="100%" height="100%" fill="url(#watermark)" fill-opacity="1" class="watermarklayer"></rect> <g data-v-0dd9719b="" fill="#133359" class="icon-text-wrapper icon-svg-group iconsvg" transform="translate(52.1199951171875,95)"><g class="iconsvg-imagesvg" transform="translate(0,0)"><g><rect fill="#133359" fill-opacity="0" stroke-width="2" x="0" y="0" width="60" height="60" class="image-rect"></rect> <svg x="0" y="0" width="60" height="60" filtersec="colorsb8645378243" class="image-svg-svg primary" style="overflow: visible;"><svg xmlns="http://www.w3.org/2000/svg" viewBox="0 0 194.82000732421875 194.82000732421875"><g><g fill-rule="evenodd"><path fill="#133359" d="M194.82 15.46v179.36H72.15l97.94-97.94-14.51-14.52L43.12 194.82H15.46L194.82 15.46z"></path><path fill="#fe7c30" d="M0 0h122.68L24.73 97.94l14.51 14.51L151.7 0h29.55L0 181.25V0z"></path></g></g></svg></svg> <!----></g></g> <g transform="translate(67,2.268749237060547)"><g data-gra="path-name" fill-rule="" class="tp-name iconsvg-namesvg" transform="translate(0,0)"><g transform="scale(1)"><g><path d="M4.03-35.2L4.03-35.2 4.32-35.44Q10.67-35.53 12.53-32.66L12.53-32.66Q13.65-30.96 12.53-29.34L12.53-29.34Q11.46-27.77 9.46-28.14L9.46-28.14Q8.76-28.26 8.05-28.64L8.05-28.64Q7.1-32.04 4.03-35.2ZM0.95-25.73L0.95-25.73 1.25-25.94Q7.18-25.69 8.76-22.91L8.76-22.91Q9.75-21.21 8.55-19.67L8.55-19.67Q7.39-18.14 5.4-18.64L5.4-18.64Q4.65-18.8 3.94-19.3L3.94-19.3Q3.49-22.79 0.95-25.73ZM13.61-29.01L13.61-29.01 14.24-28.85Q10.75-16.77 9.71-11.62L9.71-11.62Q9.09-8.76 9.13-7.39L9.13-7.39Q9.17-6.43 9.69-5.31 10.21-4.19 10.69-2.84 11.16-1.49 11.12 0.17L11.12 0.17Q11.04 1.87 9.88 2.93 8.72 3.98 6.93 3.98L6.93 3.98Q4.65 3.98 4.07 1.78L4.07 1.78Q4.77-1.49 4.67-4.23 4.57-6.97 3.78-7.51L3.78-7.51Q2.78-8.18 1.54-8.22L1.54-8.22 1.54-8.96 3.49-8.96Q3.9-8.96 4.07-9.01 4.23-9.05 4.44-9.23 4.65-9.42 4.86-9.88L4.86-9.88Q5.64-11.16 6.79-13.65 7.93-16.15 13.61-29.01ZM39.72-10.17L40.18-10.17 40.34-3.28Q41.34-2.82 41.67-2.3 42-1.78 42-0.91L42-0.91Q42 0.91 40.18 1.81 38.35 2.7 34.12 2.7L34.12 2.7 30.96 2.7Q27.81 2.7 26.81 1.7 25.82 0.71 25.82-2.2L25.82-2.2 25.82-11.21Q21.96-1.66 11.21 4.03L11.21 4.03 10.75 3.49Q14.24 0.29 16.62-3.28 19.01-6.85 20.23-10.73 21.46-14.61 22-18.18 22.54-21.75 22.66-26.19L22.66-26.19 19.22-26.19Q19.8-21.37 17.35-19.63L17.35-19.63Q15.77-18.51 14.22-19.28 12.66-20.05 12.95-21.87L12.95-21.87Q13.12-22.83 13.82-23.82L13.82-23.82Q15.15-24.9 16.23-26.73 17.31-28.55 17.72-30.55L17.72-30.55 18.14-30.55Q18.84-28.35 19.01-27.35L19.01-27.35 22.7-27.35Q22.74-30.26 22.74-36.15L22.74-36.15 30.38-35.44Q30.26-34.45 28.8-34.24L28.8-34.24Q28.72-29.59 28.64-27.35L28.64-27.35 34.2-27.35 36.98-30.09 41.71-25.57Q41.34-25.15 40.05-25.03L40.05-25.03Q36.52-22 33.74-20.17L33.74-20.17 33.37-20.42Q33.95-22.99 34.45-26.19L34.45-26.19 28.6-26.19Q28.35-22.04 28.06-20.05L28.06-20.05 33.08-19.63Q33-18.68 31.71-18.51L31.71-18.51 31.71-3.78Q31.71-3.32 31.9-3.15 32.08-2.99 32.71-2.99L32.71-2.99 34.86-2.99Q36.19-2.99 36.56-3.03L36.56-3.03Q37.15-3.03 37.52-3.65L37.52-3.65Q37.98-4.52 39.72-10.17L39.72-10.17ZM66.9-16.1L66.9-1.7 75.74-1.7 75.74-16.1 66.9-16.1ZM75.74-17.31L75.74-31.29 66.9-31.29 66.9-17.31 75.74-17.31ZM51.17-9.84L52.92-9.84Q54.66-9.84 54.66-12.08L54.66-12.08Q54.66-17.14 52.05-20.67L52.05-20.67Q53.33-25.86 53.91-31.83L53.91-31.83 51.17-31.83 51.17-9.84ZM75.5-32.46L78.53-35.98 83.84-31.67Q83.01-30.84 81.93-30.63L81.93-30.63 81.93 1.49Q81.93 1.7 81.33 2.12 80.73 2.53 79.46 2.91 78.19 3.28 76.78 3.28L76.78 3.28 75.74 3.28 75.74-0.5 66.9-0.5 66.9 2.28Q66.9 2.53 66.36 2.91 65.83 3.28 64.64 3.61 63.46 3.94 62.09 3.94L62.09 3.94 61.01 3.94 61.01-30.17Q60.8-30.13 60.35-30.13L60.35-30.13Q56.36-24.07 53.17-20.75L53.17-20.75Q56.61-19.01 58.44-16.06 60.26-13.12 60.26-10.21L60.26-10.21Q60.26-3.15 53.21-3.11L53.21-3.11Q53.21-6.81 52.63-8.05L52.63-8.05Q52.21-8.8 51.17-9.17L51.17-9.17 51.17 2.24Q51.17 2.49 50.66 2.91 50.14 3.32 48.97 3.69 47.81 4.07 46.48 4.07L46.48 4.07 45.45 4.07 45.45-35.36 51.76-33.04 53.54-33.04 56.57-35.94 61.01-31.92 61.01-34.86 67.44-32.46 75.5-32.46ZM108.99-35.28L108.99-35.28 109.32-35.57Q118.62-34.45 122.1-30.05L122.1-30.05Q124.14-27.52 123.31-25.19L123.31-25.19Q122.64-23.33 120.73-23.2L120.73-23.2Q119.61-23.12 118.37-23.74L118.37-23.74Q116.96-26.69 114.36-29.82 111.77-32.95 108.99-35.28ZM95.96-36.23L95.96-36.23 103.22-32.71Q102.93-31.96 101.6-32.08L101.6-32.08Q96.04-24.28 87.61-20.92L87.61-20.92 87.32-21.33Q90.27-24.11 92.57-28.26 94.88-32.41 95.96-36.23ZM100.94-12.99L111.6-12.99 114.14-15.85Q110.11-19.67 108.33-24.9L108.33-24.9Q104.84-19.26 97.33-14.4L97.33-14.4 100.94-12.99ZM100.65-11.83L100.65-1.04 112.06-1.04 112.06-11.83 100.65-11.83ZM102.18-28.76L102.18-28.76 111.27-26.48Q111.02-25.57 108.99-25.4L108.99-25.4Q113.51-19.67 127-17.43L127-17.43 126.96-16.77Q125.05-16.19 123.79-14.38 122.52-12.58 122.23-10.58L122.23-10.58Q121.36-10.96 120.2-11.62L120.2-11.62Q119.61-10.96 118.45-10.71L118.45-10.71 118.45 2.41Q118.41 2.57 117.56 2.91 116.71 3.24 115.4 3.53 114.09 3.82 113.14 3.82L113.14 3.82 112.06 3.82 112.06 0.17 100.65 0.17 100.65 2.12Q100.65 2.61 98.88 3.32 97.12 4.03 95.38 4.03L95.38 4.03 94.46 4.03 94.46-12.66Q90.23-10.33 86.08-8.96L86.08-8.96 85.83-9.38Q91.43-12.87 96.25-18.57 101.06-24.28 102.18-28.76ZM153.27-11.87L158.92-11.87 160.99-14.19Q158.34-15.77 156.47-17.56L156.47-17.56Q153.23-15.19 149-13.45L149-13.45 153.27-11.87ZM152.78-10.67L152.78-0.21 159.13-0.21 159.13-10.67 152.78-10.67ZM159.54-29.38L159.54-29.38 153.94-29.38Q153.11-28.06 151.9-26.65L151.9-26.65Q153.4-24.61 155.93-22.87L155.93-22.87Q158.09-25.77 159.54-29.38ZM159.42-30.55L162.57-33.49 167.55-29.05Q167.22-28.51 165.77-28.35L165.77-28.35Q163.65-24.16 160.12-20.67L160.12-20.67Q164.27-18.93 169.71-18.18L169.71-18.18 169.63-17.72Q166.26-16.35 165.85-12.12L165.85-12.12 165.06-12.37 166.76-11.08Q166.31-10.5 165.1-10.25L165.1-10.25 165.1 2.28Q165.1 2.41 164.54 2.68 163.98 2.95 162.78 3.22 161.57 3.49 160.16 3.49L160.16 3.49 159.13 3.49 159.13 1 152.78 1 152.78 2.7Q152.78 2.91 152.26 3.18 151.74 3.44 150.62 3.69 149.5 3.94 148.13 3.94L148.13 3.94 147.09 3.94 147.09-12.7Q144.6-11.83 142.23-11.25L142.23-11.25 141.98-11.79Q149.04-14.98 153.98-20.5L153.98-20.5Q152.32-22.87 151.07-25.77L151.07-25.77Q148.21-22.58 144.14-20.3L144.14-20.3 143.69-20.67Q145.39-23.12 146.14-24.57L146.14-24.57Q146.01-24.53 145.72-24.53L145.72-24.53 139.99-24.53 139.99-21.62Q144.81-20.05 145.6-17.22L145.6-17.22Q146.09-15.4 144.72-14.28L144.72-14.28Q143.31-13.12 141.65-14.19L141.65-14.19Q141.32-14.4 140.99-14.73L140.99-14.73Q141.15-17.47 139.99-20.42L139.99-20.42 139.99 2.24Q139.99 2.7 138.5 3.36 137 4.03 135.51 4.03L135.51 4.03 134.39 4.03 134.39-12.24Q131.77-8.63 128.7-6.02L128.7-6.02 128.21-6.47Q132.23-12.99 133.85-24.53L133.85-24.53 129.08-24.53 128.75-25.73 134.39-25.73 134.39-36.44 141.57-35.73Q141.45-34.7 139.99-34.49L139.99-34.49 139.99-25.73 140.32-25.73 142.73-29.34Q145.1-27.1 146.59-25.48L146.59-25.48Q149.21-30.71 150.29-36.15L150.29-36.15 157.63-33.62Q157.3-32.71 155.89-32.83L155.89-32.83Q155.35-31.71 154.64-30.55L154.64-30.55 159.42-30.55Z" transform="translate(-0.9500000476837158, 36.439998626708984)"></path></g> <!----> <!----> <!----> <!----> <!----> <!----> <!----></g></g> <g data-gra="path-slogan" fill-rule="" class="tp-slogan iconsvg-slogansvg" fill="#133359" transform="translate(32.134178161621094,47.5099983215332)"><!----> <!----> <g transform="scale(1, 1)"><g transform="scale(1)"><path d="M7.17-6.09L7.17-6.09L6.09-6.09Q6-7.73 3.94-7.83L3.94-7.83Q2.02-7.78 2.02-6.33L2.02-6.33Q2.02-5.39 3.05-5.25L3.05-5.25L5.48-4.69Q7.41-4.22 7.41-2.34L7.41-2.34Q7.36 0.05 4.03 0.14L4.03 0.14Q2.20 0.14 1.45-0.61L1.45-0.61Q0.52-1.31 0.56-2.77L0.56-2.77L1.69-2.77Q1.73-0.80 4.03-0.75L4.03-0.75Q6.28-0.80 6.33-2.20L6.33-2.20Q6.52-3.38 4.45-3.75L4.45-3.75L2.67-4.13Q0.84-4.64 0.84-6.19L0.84-6.19Q0.98-8.72 3.84-8.81L3.84-8.81Q7.08-8.81 7.17-6.09ZM10.03-5.06L14.53-5.06L14.53-8.58L15.70-8.58L15.70 0L14.53 0L14.53-3.98L10.03-3.98L10.03 0L8.86 0L8.86-8.58L10.03-8.58L10.03-5.06ZM18.80-1.03L23.95-1.03L23.95 0L17.63 0L17.63-8.58L23.86-8.58L23.86-7.59L18.80-7.59L18.80-4.92L23.48-4.92L23.48-3.89L18.80-3.89L18.80-1.03ZM26.86-8.58L31.17-1.64L31.17-8.58L32.30-8.58L32.30 0L30.98 0L26.63-6.94L26.58-6.94L26.58 0L25.45 0L25.45-8.58L26.86-8.58ZM41.02-8.58L37.78-3.47L37.78 0L36.61 0L36.61-3.47L33.38-8.58L34.73-8.58L37.17-4.45L39.66-8.58L41.02-8.58ZM47.72 0L46.88-2.48L43.41-2.48L42.52 0L41.34 0L44.58-8.58L45.89-8.58L48.98 0L47.72 0ZM45.14-7.31L43.78-3.52L46.45-3.52L45.19-7.31L45.14-7.31ZM51.42-8.58L55.73-1.64L55.73-8.58L56.86-8.58L56.86 0L55.55 0L51.19-6.94L51.14-6.94L51.14 0L50.02 0L50.02-8.58L51.42-8.58ZM65.06-3.61L62.44-3.61L62.44-4.59L66.19-4.59L66.19 0L65.44 0L65.16-1.08Q64.17 0.09 62.34 0.14L62.34 0.14Q60.61 0.14 59.67-0.75L59.67-0.75Q58.27-2.06 58.31-4.36L58.31-4.36Q58.64-8.63 62.39-8.81L62.39-8.81Q65.58-8.63 66.05-6L66.05-6L64.92-6Q64.45-7.78 62.34-7.83L62.34-7.83Q59.67-7.64 59.53-4.31L59.53-4.31Q59.53-0.75 62.39-0.75L62.39-0.75Q63.42-0.75 64.17-1.31L64.17-1.31Q65.11-2.06 65.06-3.61L65.06-3.61ZM77.72-3.61L75.09-3.61L75.09-4.59L78.84-4.59L78.84 0L78.09 0L77.81-1.08Q76.83 0.09 75 0.14L75 0.14Q73.27 0.14 72.33-0.75L72.33-0.75Q70.92-2.06 70.97-4.36L70.97-4.36Q71.30-8.63 75.05-8.81L75.05-8.81Q78.23-8.63 78.70-6L78.70-6L77.58-6Q77.11-7.78 75-7.83L75-7.83Q72.33-7.64 72.19-4.31L72.19-4.31Q72.19-0.75 75.05-0.75L75.05-0.75Q76.08-0.75 76.83-1.31L76.83-1.31Q77.77-2.06 77.72-3.61L77.72-3.61ZM86.30-3.19L86.30-8.58L87.47-8.58L87.47-3.05Q87.33 0.05 83.95 0.14L83.95 0.14Q80.81 0.05 80.67-2.86L80.67-2.86L80.67-8.58L81.84-8.58L81.84-3.19Q81.89-0.84 84-0.80L84-0.80Q86.30-0.84 86.30-3.19L86.30-3.19ZM95.67-3.61L93.05-3.61L93.05-4.59L96.80-4.59L96.80 0L96.05 0L95.77-1.08Q94.78 0.09 92.95 0.14L92.95 0.14Q91.22 0.14 90.28-0.75L90.28-0.75Q88.88-2.06 88.92-4.36L88.92-4.36Q89.25-8.63 93-8.81L93-8.81Q96.19-8.63 96.66-6L96.66-6L95.53-6Q95.06-7.78 92.95-7.83L92.95-7.83Q90.28-7.64 90.14-4.31L90.14-4.31Q90.14-0.75 93-0.75L93-0.75Q94.03-0.75 94.78-1.31L94.78-1.31Q95.72-2.06 95.67-3.61L95.67-3.61ZM99.89-1.03L105.05-1.03L105.05 0L98.72 0L98.72-8.58L104.95-8.58L104.95-7.59L99.89-7.59L99.89-4.92L104.58-4.92L104.58-3.89L99.89-3.89L99.89-1.03Z" transform="translate(-0.5602678571428572, 8.8125)"></path></g></g></g></g></g><defs v-gra="od"></defs></svg>